<svg xmlns="http://www.w3.org/2000/svg" width="841.89" height="595.275" viewBox="0 0 841.89 595.275"><linearGradient id="a" gradientUnits="userSpaceOnUse" x1="-173.997" y1="719.004" x2="-172.997" y2="719.004" gradientTransform="matrix(57.834 0 0 -57.834 10550.116 41738.96)"><stop offset="0" stop-color="#91225c"/><stop offset=".001" stop-color="#9e2363"/><stop offset=".004" stop-color="#b4246e"/><stop offset=".007" stop-color="#c72378"/><stop offset=".011" stop-color="#d6217e"/><stop offset=".015" stop-color="#e11e83"/><stop offset=".022" stop-color="#e91b86"/><stop offset=".039" stop-color="#ed1b88"/><stop offset=".438" stop-color="#ec3993"/><stop offset="1" stop-color="#ec3993"/></linearGradient><path fill="url(#a)" d="M545.052 144.895c1.766 4.539-9.675 13.236-25.56 19.399-15.836 6.193-30.145 7.529-31.914 2.992-1.768-4.539 9.674-13.209 25.559-19.399 15.836-6.189 30.145-7.527 31.915-2.992z"/><radialGradient id="b" cx="-173.993" cy="719.008" r="1.001" gradientTransform="matrix(56.8858 0 0 -56.8858 10550.316 41119.484)" gradientUnits="userSpaceOnUse"><stop offset="0" stop-color="#fff799"/><stop offset=".115" stop-color="#ffee7a"/><stop offset=".242" stop-color="#ffe758"/><stop offset=".373" stop-color="#ffe338"/><stop offset=".509" stop-color="#ffe01a"/><stop offset=".65" stop-color="#ffde00"/><stop offset=".809" stop-color="#fd0"/><stop offset="1" stop-color="#f2bf39"/></radialGradient><path fill="url(#b)" d="M693.031 253.81c-.811 10.917-5.365 19.803-13.365 23.833-15.24 7.674-37.203-5.186-49.057-28.7-7.234-14.371-9.031-29.396-5.869-40.645l-.006.006c1.305 1.227 2.631 2.475 3.977 3.723 25.225 23.381 50.471 39.387 64.316 41.791l.004-.008z"/><linearGradient id="c" gradientUnits="userSpaceOnUse" x1="-174.004" y1="718.994" x2="-173.004" y2="718.994" gradientTransform="matrix(68.4283 0 0 -68.4283 12531.306 49421.57)"><stop offset="0" stop-color="#fd0"/><stop offset=".154" stop-color="#ffd900"/><stop offset=".338" stop-color="#fccd1c"/><stop offset=".539" stop-color="#f4ba32"/><stop offset=".751" stop-color="#eaa043"/><stop offset=".971" stop-color="#e0824f"/><stop offset="1" stop-color="#de7d50"/></linearGradient><path fill="url(#c)" d="M693.027 253.818c-13.846-2.404-39.092-18.41-64.316-41.791-1.346-1.248-2.672-2.496-3.977-3.723l.006-.006c2.021-7.193 6.063-12.859 12-15.848 15.24-7.676 37.201 5.184 49.057 28.702 5.631 11.178 7.967 22.76 7.234 32.658l-.004.008z"/><linearGradient id="d" gradientUnits="userSpaceOnUse" x1="-174.003" y1="718.997" x2="-173.003" y2="718.997" gradientTransform="scale(67.6292 -67.6292) rotate(60 543.126 516.646)"><stop offset="0" stop-color="#f15b52"/><stop offset=".006" stop-color="#f15b52"/><stop offset=".422" stop-color="#e0413b"/><stop offset=".792" stop-color="#d62c2d"/><stop offset="1" stop-color="#d2232a"/></linearGradient><path fill="url(#d)" d="M693.031 253.81c.732-9.898-1.604-21.48-7.234-32.658-11.855-23.518-33.816-36.377-49.057-28.702-5.938 2.988-9.979 8.654-12 15.848v.014l-.006-.008c-30.444-29.238-48.886-58.448-41.493-66.424 1.654-1.783 4.469-2.361 8.197-1.861l.006.002c53.87 9.934 97.188 50.153 111.612 102.38l-.004.004c1.186 4.344.957 7.688-.904 9.691-1.785 1.936-4.93 2.449-9.121 1.723l.004-.009z"/><radialGradient id="e" cx="-173.997" cy="719.001" r="1" gradientTransform="matrix(142.4606 .1776 .1709 -137.0793 25220.393 98912.422)" gradientUnits="userSpaceOnUse"><stop offset="0" stop-color="#cdc5e2"/><stop offset=".003" stop-color="#cdc5e2"/><stop offset=".164" stop-color="#a49bcb"/><stop offset=".358" stop-color="#7f77b5"/><stop offset=".506" stop-color="#6a64aa"/><stop offset=".589" stop-color="#625da6"/><stop offset="1" stop-color="#625da6"/></radialGradient><path fill="url(#e)" d="M563.387 363.797c35.581-1.923 63.79-31.377 63.79-67.388 0-37.302-30.189-67.518-67.493-67.518a67.203 67.203 0 0 0-35.604 10.151c6.455 9.099 12.821 19.983 18.427 32.945 11.243 25.999 22.512 61.897 20.88 91.81z"/><radialGradient id="f" cx="-174.002" cy="718.998" r="1" gradientTransform="matrix(153.7598 0 0 -153.7598 27255.955 110809.797)" gradientUnits="userSpaceOnUse"><stop offset="0" stop-color="#57b0dc"/><stop offset=".089" stop-color="#55a9d8"/><stop offset=".234" stop-color="#4f99ce"/><stop offset=".417" stop-color="#4781bd"/><stop offset=".596" stop-color="#3d67ad"/><stop offset=".916" stop-color="#1f3e78"/><stop offset="1" stop-color="#1f3e78"/></radialGradient><path fill="url(#f)" d="M513.08 389.925c10.766-3.991 28.712-7.303 47.904-9.358.518-2.281.988-4.689 1.401-7.248a90.93 90.93 0 0 0 1.001-9.521c-1.227.066-2.46.105-3.703.105-37.302 0-67.492-30.239-67.492-67.493 0-24.232 12.768-45.449 31.888-57.366-14.643-20.711-29.799-31.983-37.532-36.482-13.627-7.928-34.931-13.371-48.737 13.794-9.769 19.202-15.074 41.007-15.074 63.993 0 56.771 33.074 105.854 81.04 128.988-9.847-4.905-13.444-11.017 9.304-19.412z"/><radialGradient id="g" cx="-174.002" cy="718.998" r="1" gradientTransform="matrix(110.2219 0 0 -110.2219 19685.924 79506.484)" gradientUnits="userSpaceOnUse"><stop offset="0" stop-color="#5493c9"/><stop offset=".445" stop-color="#4573b4"/><stop offset=".81" stop-color="#3b5ea7"/><stop offset="1" stop-color="#3756a2"/></radialGradient><path fill="url(#g)" d="M492.191 296.409c0 37.254 30.19 67.493 67.492 67.493 1.243 0 2.477-.039 3.703-.105 1.632-29.913-9.637-65.811-20.881-91.809-5.605-12.962-11.972-23.846-18.427-32.945-19.119 11.917-31.887 33.134-31.887 57.366z"/><linearGradient id="h" gradientUnits="userSpaceOnUse" x1="-173.995" y1="719.005" x2="-172.996" y2="719.005" gradientTransform="matrix(0 -49.0138 -49.0138 0 35819.516 -8104.182)"><stop offset="0" stop-color="#00662e"/><stop offset=".118" stop-color="#00763a"/><stop offset=".289" stop-color="#008a4a"/><stop offset=".464" stop-color="#009a58"/><stop offset=".639" stop-color="#00a563"/><stop offset=".817" stop-color="#00ad6a"/><stop offset="1" stop-color="#00b06c"/></linearGradient><path fill="url(#h)" d="M628.462 380.072c-16.252-2.71-42.888-2.14-67.478.494-9.125 40.223-33.706 38.5-47.762 32.917a135.566 135.566 0 0 1-9.23-4.038c.072.036-.074-.036 0 0 18.604 9.169 39.682 14.037 61.854 14.037 30.209 0 58.184-9.355 81.284-25.327 8.912-6.161 10.13-13.296-18.668-18.083z"/><linearGradient id="i" gradientUnits="userSpaceOnUse" x1="-173.996" y1="719.001" x2="-172.996" y2="719.001" gradientTransform="scale(48.9085 -48.9085) rotate(70 437.815 487.074)"><stop offset="0" stop-color="#00585b"/><stop offset=".107" stop-color="#00585b"/><stop offset=".109" stop-color="#00595c"/><stop offset=".211" stop-color="#007476"/><stop offset=".309" stop-color="#008a8b"/><stop offset=".4" stop-color="#009a99"/><stop offset=".482" stop-color="#00a3a2"/><stop offset=".545" stop-color="#00a7a6"/><stop offset="1" stop-color="#00bbc7"/></linearGradient><path fill="url(#i)" d="M560.984 380.566c-19.192 2.056-37.139 5.367-47.904 9.358-22.748 8.396-19.151 14.507-9.305 19.411 3.09 1.49 6.238 2.878 9.447 4.147 14.056 5.584 38.637 7.307 47.762-32.916z"/><path fill="#FFF" d="M231.992 289.713c23.275-14.142 18.81-55.85-23.04-55.85h-90.48c-7.015 0-12.839 5.775-12.839 12.799v98.729c0 7.014 5.824 12.82 12.839 12.82h78.801c62.663 0 70.488-55.756 34.719-68.498zm-79.146-36.4h48.634c27.73 0 26.364 30.085-3.69 30.085h-44.944v-30.085zm39.242 84.076h-39.243v-34.42h50.264c28.461.011 28.732 34.42-11.021 34.42z"/><path fill="#FFF" d="M390.848 233.883H259.63c-5.724 0-11.652 4.66-11.652 10.402 0 5.727 5.928 10.375 11.652 10.375h43.583v90.731c0 6.98 5.822 12.82 12.843 12.82h20.397c7.063 0 12.831-5.84 12.831-12.82V254.66h41.563c5.698 0 11.605-4.648 11.605-10.375.001-5.743-5.907-10.402-11.604-10.402z"/></svg>